<svg width="1600" height="980" viewBox="0 0 1600 980" fill="none" xmlns="http://www.w3.org/2000/svg">
  <defs>
    <linearGradient id="bg" x1="220" y1="80" x2="1360" y2="900" gradientUnits="userSpaceOnUse">
      <stop stop-color="#0F1B31"/>
      <stop offset="1" stop-color="#09111F"/>
    </linearGradient>
    <linearGradient id="panel" x1="0" y1="0" x2="1" y2="1">
      <stop stop-color="#162640"/>
      <stop offset="1" stop-color="#0E192C"/>
    </linearGradient>
    <filter id="shadow" x="-20%" y="-20%" width="140%" height="140%">
      <feDropShadow dx="0" dy="18" stdDeviation="22" flood-color="#000000" flood-opacity="0.35"/>
    </filter>
    <style>
      .title { fill:#EAF2FF; font: 700 44px 'Segoe UI', Arial, sans-serif; }
      .subtitle { fill:#9FB0CF; font: 400 18px 'Segoe UI', Arial, sans-serif; }
      .group-title { fill:#F3F7FF; font: 700 24px 'Segoe UI', Arial, sans-serif; }
      .group-copy { fill:#AFC0DF; font: 400 15px 'Segoe UI', Arial, sans-serif; }
      .node-title { fill:#F6FAFF; font: 700 18px 'Segoe UI', Arial, sans-serif; }
      .node-copy { fill:#A9BCDC; font: 400 13px 'Segoe UI', Arial, sans-serif; }
      .chip { fill:#D9E8FF; font: 600 13px 'Segoe UI', Arial, sans-serif; }
      .label { fill:#9FB0CF; font: 500 14px 'Segoe UI', Arial, sans-serif; }
    </style>
  </defs>

  <rect width="1600" height="980" rx="32" fill="url(#bg)"/>
  <g opacity="0.12">
    <path d="M0 120H1600M0 240H1600M0 360H1600M0 480H1600M0 600H1600M0 720H1600M0 840H1600" stroke="#DCE7FF"/>
    <path d="M160 0V980M320 0V980M480 0V980M640 0V980M800 0V980M960 0V980M1120 0V980M1280 0V980M1440 0V980" stroke="#DCE7FF"/>
  </g>

  <text x="92" y="92" class="title">System Blueprint · Overview</text>
  <text x="92" y="126" class="subtitle">Cross-agent skill package for polished architecture, runtime, and memory diagrams</text>

  <g filter="url(#shadow)">
    <rect x="82" y="176" width="310" height="184" rx="28" fill="#0C2940" stroke="#39BDF8" stroke-opacity="0.42"/>
    <text x="110" y="224" class="group-title">Client / Request Layer</text>
    <text x="110" y="254" class="group-copy">The user, prompt surface, and entry point where a request starts.</text>
    <rect x="110" y="282" width="118" height="46" rx="16" fill="#133751" stroke="#6FD3FF" stroke-opacity="0.35"/>
    <text x="137" y="311" class="node-title">User</text>
    <rect x="246" y="282" width="118" height="46" rx="16" fill="#133751" stroke="#6FD3FF" stroke-opacity="0.35"/>
    <text x="268" y="311" class="node-title">Prompt UI</text>
  </g>

  <g filter="url(#shadow)">
    <rect x="444" y="156" width="692" height="250" rx="30" fill="#0F251F" stroke="#39D9A0" stroke-opacity="0.34"/>
    <text x="478" y="208" class="group-title">Skill Runtime</text>
    <text x="478" y="238" class="group-copy">A portable SKILL.md workflow that extracts structure, chooses a view, and renders a self-contained output.</text>

    <rect x="478" y="276" width="176" height="84" rx="20" fill="#143228" stroke="#52E6B2" stroke-opacity="0.35"/>
    <text x="508" y="311" class="node-title">SKILL.md</text>
    <text x="508" y="334" class="node-copy">Triggers, workflow, output contract</text>

    <rect x="702" y="276" width="176" height="84" rx="20" fill="#143228" stroke="#52E6B2" stroke-opacity="0.35"/>
    <text x="728" y="311" class="node-title">Template</text>
    <text x="728" y="334" class="node-copy">HTML + inline SVG visual base</text>

    <rect x="926" y="276" width="176" height="84" rx="20" fill="#143228" stroke="#52E6B2" stroke-opacity="0.35"/>
    <text x="948" y="311" class="node-title">Renderer</text>
    <text x="948" y="334" class="node-copy">Overview, topology, flow, memory view</text>
  </g>

  <g filter="url(#shadow)">
    <rect x="1178" y="176" width="330" height="184" rx="28" fill="#35240F" stroke="#F7B955" stroke-opacity="0.35"/>
    <text x="1210" y="224" class="group-title">Output Layer</text>
    <text x="1210" y="254" class="group-copy">Files optimized for docs, demos, and sharing.</text>
    <rect x="1210" y="282" width="118" height="46" rx="16" fill="#4A3110" stroke="#FFD179" stroke-opacity="0.35"/>
    <text x="1249" y="311" class="node-title">HTML</text>
    <rect x="1346" y="282" width="118" height="46" rx="16" fill="#4A3110" stroke="#FFD179" stroke-opacity="0.35"/>
    <text x="1388" y="311" class="node-title">SVG</text>
  </g>

  <g filter="url(#shadow)">
    <rect x="314" y="516" width="982" height="286" rx="30" fill="#24143A" stroke="#C18BFF" stroke-opacity="0.30"/>
    <text x="350" y="568" class="group-title">Example Views</text>
    <text x="350" y="598" class="group-copy">One skill package, multiple technical presentation modes.</text>

    <rect x="350" y="636" width="264" height="118" rx="22" fill="#2F1A4A" stroke="#D0A3FF" stroke-opacity="0.34"/>
    <text x="382" y="680" class="node-title">System Overview</text>
    <text x="382" y="707" class="node-copy">Architecture, components, boundaries</text>
    <text x="382" y="730" class="node-copy">Best for README and design docs</text>

    <rect x="672" y="636" width="264" height="118" rx="22" fill="#2F1A4A" stroke="#D0A3FF" stroke-opacity="0.34"/>
    <text x="703" y="680" class="node-title">Runtime Flow</text>
    <text x="703" y="707" class="node-copy">Request path, routing, state changes</text>
    <text x="703" y="730" class="node-copy">Best for agent and workflow explanation</text>

    <rect x="994" y="636" width="264" height="118" rx="22" fill="#2F1A4A" stroke="#D0A3FF" stroke-opacity="0.34"/>
    <text x="1028" y="680" class="node-title">Memory / Recall</text>
    <text x="1028" y="707" class="node-copy">Session, preference, history retrieval</text>
    <text x="1028" y="730" class="node-copy">Best for LLM system design</text>
  </g>

  <path d="M392 269H444" stroke="#81D9FF" stroke-width="5" stroke-linecap="round"/>
  <path d="M1136 269H1178" stroke="#7DF1C4" stroke-width="5" stroke-linecap="round"/>
  <path d="M790 406V516" stroke="#D4A8FF" stroke-width="5" stroke-linecap="round"/>

  <rect x="92" y="876" width="168" height="38" rx="19" fill="#132238" stroke="#3D5E8D" stroke-opacity="0.46"/>
  <circle cx="118" cy="895" r="6" fill="#39BDF8"/>
  <text x="134" y="900" class="chip">Client / Entry</text>

  <rect x="280" y="876" width="170" height="38" rx="19" fill="#132238" stroke="#3D5E8D" stroke-opacity="0.46"/>
  <circle cx="306" cy="895" r="6" fill="#39D9A0"/>
  <text x="322" y="900" class="chip">Skill Runtime</text>

  <rect x="470" y="876" width="154" height="38" rx="19" fill="#132238" stroke="#3D5E8D" stroke-opacity="0.46"/>
  <circle cx="496" cy="895" r="6" fill="#F7B955"/>
  <text x="512" y="900" class="chip">Outputs</text>

  <rect x="642" y="876" width="190" height="38" rx="19" fill="#132238" stroke="#3D5E8D" stroke-opacity="0.46"/>
  <circle cx="668" cy="895" r="6" fill="#C18BFF"/>
  <text x="684" y="900" class="chip">Specialized Views</text>

  <text x="1190" y="902" class="label">README-ready SVG example · generated for the System Blueprint repository</text>
</svg>
