<svg xmlns="http://www.w3.org/2000/svg" width="480" role="img" data-theme="light" height="708" viewBox="0 0 480 708" style="font-family: &quot;Segoe UI&quot;, &quot;Microsoft YaHei&quot;, &quot;Noto Sans CJK SC&quot;, sans-serif;"><rect width="480" height="708" fill="#F8FAFC"/><title>Before · 三层基线</title><desc>使用前端、API 与数据库作为共同粒度。关系是旧示例的结构整理，不代表已核实的生产架构。</desc><text x="32" y="54" fill="#172033" font-size="22" font-weight="600">Before · 三层基线</text><text x="32" y="83" fill="#526176" font-size="13" font-weight="400">使用前端、API 与数据库作为共同粒度。关系是旧示例的结构整理，不代</text><text x="32" y="104" fill="#526176" font-size="13" font-weight="400">表已核实的生产架构。</text><svg xmlns="http://www.w3.org/2000/svg" width="288" height="508" viewBox="0 0 288 508" role="group" aria-label="技术图" data-diagram="true" style="font-family: &quot;Segoe UI&quot;, &quot;Microsoft YaHei&quot;, &quot;Noto Sans CJK SC&quot;, sans-serif;" y="128" x="96"><style>.bp-node,.bp-group-toggle,.bp-edge{cursor:pointer}.bp-node:focus{outline:none}.bp-node:focus .bp-shape,.bp-node.bp-selected .bp-shape{stroke:#2563EB;stroke-width:3}.bp-dim{opacity:.2}.bp-related .bp-shape{stroke:#2563EB;stroke-width:2.5}.bp-edge.bp-related .bp-edge-line,.bp-edge.bp-selected .bp-edge-line{stroke-width:3}.bp-edge:focus .bp-edge-line{stroke-width:3}.bp-group-toggle:focus rect{stroke:#2563EB;stroke-width:2}.bp-group-toggle:hover rect{fill:#F1F5F9}</style><defs><marker id="export-1-bp-arrow-exception" markerWidth="8" markerHeight="8" refX="8" refY="4" orient="auto" markerUnits="userSpaceOnUse"><path d="M0 0 L8 4 L0 8 Z" fill="#B91C1C"/></marker><marker id="export-1-bp-arrow-feedback" markerWidth="8" markerHeight="8" refX="8" refY="4" orient="auto" markerUnits="userSpaceOnUse"><path d="M0 0 L8 4 L0 8 Z" fill="#915E0A"/></marker><marker id="export-1-bp-arrow-source-0" markerWidth="8" markerHeight="8" refX="8" refY="4" orient="auto" markerUnits="userSpaceOnUse"><path d="M0 0 L8 4 L0 8 Z" fill="#225BB2"/></marker><marker id="export-1-bp-arrow-source-1" markerWidth="8" markerHeight="8" refX="8" refY="4" orient="auto" markerUnits="userSpaceOnUse"><path d="M0 0 L8 4 L0 8 Z" fill="#0A737E"/></marker><marker id="export-1-bp-arrow-source-2" markerWidth="8" markerHeight="8" refX="8" refY="4" orient="auto" markerUnits="userSpaceOnUse"><path d="M0 0 L8 4 L0 8 Z" fill="#6E53A7"/></marker><marker id="export-1-bp-arrow-source-3" markerWidth="8" markerHeight="8" refX="8" refY="4" orient="auto" markerUnits="userSpaceOnUse"><path d="M0 0 L8 4 L0 8 Z" fill="#286B4D"/></marker><marker id="export-1-bp-arrow-source-4" markerWidth="8" markerHeight="8" refX="8" refY="4" orient="auto" markerUnits="userSpaceOnUse"><path d="M0 0 L8 4 L0 8 Z" fill="#9C3B73"/></marker><marker id="export-1-bp-arrow-source-5" markerWidth="8" markerHeight="8" refX="8" refY="4" orient="auto" markerUnits="userSpaceOnUse"><path d="M0 0 L8 4 L0 8 Z" fill="#475569"/></marker><marker id="export-1-bp-arrow-source-6" markerWidth="8" markerHeight="8" refX="8" refY="4" orient="auto" markerUnits="userSpaceOnUse"><path d="M0 0 L8 4 L0 8 Z" fill="#795548"/></marker><marker id="export-1-bp-arrow-source-7" markerWidth="8" markerHeight="8" refX="8" refY="4" orient="auto" markerUnits="userSpaceOnUse"><path d="M0 0 L8 4 L0 8 Z" fill="#55700D"/></marker><marker id="export-1-bp-arrow-source-8" markerWidth="8" markerHeight="8" refX="8" refY="4" orient="auto" markerUnits="userSpaceOnUse"><path d="M0 0 L8 4 L0 8 Z" fill="#822B2B"/></marker><marker id="export-1-bp-arrow-source-9" markerWidth="8" markerHeight="8" refX="8" refY="4" orient="auto" markerUnits="userSpaceOnUse"><path d="M0 0 L8 4 L0 8 Z" fill="#167E16"/></marker><marker id="export-1-bp-arrow-source-10" markerWidth="8" markerHeight="8" refX="8" refY="4" orient="auto" markerUnits="userSpaceOnUse"><path d="M0 0 L8 4 L0 8 Z" fill="#953295"/></marker><marker id="export-1-bp-arrow-source-11" markerWidth="8" markerHeight="8" refX="8" refY="4" orient="auto" markerUnits="userSpaceOnUse"><path d="M0 0 L8 4 L0 8 Z" fill="#6F5625"/></marker><marker id="export-1-bp-arrow-source-12" markerWidth="8" markerHeight="8" refX="8" refY="4" orient="auto" markerUnits="userSpaceOnUse"><path d="M0 0 L8 4 L0 8 Z" fill="#326395"/></marker><marker id="export-1-bp-arrow-source-13" markerWidth="8" markerHeight="8" refX="8" refY="4" orient="auto" markerUnits="userSpaceOnUse"><path d="M0 0 L8 4 L0 8 Z" fill="#25256F"/></marker><marker id="export-1-bp-arrow-source-14" markerWidth="8" markerHeight="8" refX="8" refY="4" orient="auto" markerUnits="userSpaceOnUse"><path d="M0 0 L8 4 L0 8 Z" fill="#11799C"/></marker><marker id="export-1-bp-arrow-source-15" markerWidth="8" markerHeight="8" refX="8" refY="4" orient="auto" markerUnits="userSpaceOnUse"><path d="M0 0 L8 4 L0 8 Z" fill="#6F3E25"/></marker><marker id="export-1-bp-arrow-source-16" markerWidth="8" markerHeight="8" refX="8" refY="4" orient="auto" markerUnits="userSpaceOnUse"><path d="M0 0 L8 4 L0 8 Z" fill="#572B82"/></marker><marker id="export-1-bp-arrow-source-17" markerWidth="8" markerHeight="8" refX="8" refY="4" orient="auto" markerUnits="userSpaceOnUse"><path d="M0 0 L8 4 L0 8 Z" fill="#6F253E"/></marker></defs><rect width="288" height="508" fill="#F8FAFC" data-background="true"/><g class="bp-edge" data-edge-id="frontend-api" data-edge-kind="dependency" aria-label="依赖：frontend 到 api：应用请求"><path d="M144 112 L144 206" fill="none" stroke="transparent" stroke-width="16" data-edge-hit="true"/><path d="M144 112 L144 206" fill="none" stroke="#6E53A7" stroke-width="2.2" stroke-dasharray="3 4" stroke-linejoin="round" marker-end="url(#export-1-bp-arrow-source-2)" class="bp-edge-line"/></g><g class="bp-edge" data-edge-id="api-database" data-edge-kind="data" aria-label="数据：api 到 database：业务读写"><path d="M144 286 L144 380" fill="none" stroke="transparent" stroke-width="16" data-edge-hit="true"/><path d="M144 286 L144 380" fill="none" stroke="#225BB2" stroke-width="2.2" stroke-dasharray="none" stroke-linejoin="round" marker-end="url(#export-1-bp-arrow-source-0)" class="bp-edge-line"/></g><g class="bp-node" data-node-id="frontend" data-node-kind="process" data-original-node-ids="[&quot;frontend&quot;]" aria-label="前端" transform="translate(32 32)"><rect stroke="#456BB0" fill="#F1F6FE" stroke-width="1.5" class="bp-shape" width="224" height="80" rx="8" stroke-dasharray="none"/><text x="16" y="31" fill="#172033" font-size="15" font-weight="600" text-anchor="start" data-text-block="true"><tspan x="16" dy="0">前端</tspan></text><text x="16" y="58" fill="#526176" font-size="13" font-weight="400" text-anchor="start" data-text-block="true"><tspan x="16" dy="0">请求入口</tspan></text></g><g class="bp-node" data-node-id="api" data-node-kind="process" data-original-node-ids="[&quot;api&quot;]" aria-label="API" transform="translate(32 206)"><rect stroke="#456BB0" fill="#F1F6FE" stroke-width="1.5" class="bp-shape" width="224" height="80" rx="8" stroke-dasharray="none"/><text x="16" y="31" fill="#172033" font-size="15" font-weight="600" text-anchor="start" data-text-block="true"><tspan x="16" dy="0">API</tspan></text><text x="16" y="58" fill="#526176" font-size="13" font-weight="400" text-anchor="start" data-text-block="true"><tspan x="16" dy="0">应用处理</tspan></text></g><g class="bp-node" data-node-id="database" data-node-kind="store" data-original-node-ids="[&quot;database&quot;]" aria-label="数据库" transform="translate(32 380)"><path stroke="#6E53A7" fill="#F7F3FD" stroke-width="1.5" class="bp-shape" d="M0 12 C0 -4 224 -4 224 12 V84 C224 100 0 100 0 84 Z M0 12 C0 28 224 28 224 12"/><text x="16" y="43" fill="#172033" font-size="15" font-weight="600" text-anchor="start" data-text-block="true"><tspan x="16" dy="0">数据库</tspan></text><text x="16" y="70" fill="#526176" font-size="13" font-weight="400" text-anchor="start" data-text-block="true"><tspan x="16" dy="0">业务记录</tspan></text></g><g data-edge-labels="true"><g data-label-edge-id="frontend-api" pointer-events="none"><rect x="153" y="120" width="58" height="22" rx="3" fill="#F8FAFC"/><text x="158" y="134" fill="#6E53A7" font-size="12" font-weight="400" text-anchor="start" data-text-block="true"><tspan x="158" dy="0">应用请求</tspan></text></g><g data-label-edge-id="api-database" pointer-events="none"><rect x="153" y="294" width="58" height="22" rx="3" fill="#F8FAFC"/><text x="158" y="308" fill="#225BB2" font-size="12" font-weight="400" text-anchor="start" data-text-block="true"><tspan x="158" dy="0">业务读写</tspan></text></g></g></svg><text x="32" y="666" fill="#526176" font-size="12">普通连线按来源节点着色；同源同色，超出色板容量时颜色可能复用</text><text x="32" y="684" fill="#526176" font-size="12">短虚线：依赖</text></svg>